# Blender v2.80 (sub 75) OBJ File: 'LOW_POLY_piece_Bishop.blend'
# www.blender.org
mtllib bishop.mtl
o Chess_Bishop
v 0.000000 7.860339 -0.085974
v -0.000000 7.877440 -0.000000
v 0.060793 7.860339 -0.060793
v 0.112330 7.811639 -0.112330
v 0.158859 7.652780 -0.158859
v 0.112330 7.493921 -0.112330
v 0.060793 7.445221 -0.060793
v 0.085974 7.860339 -0.000000
v 0.158859 7.811639 -0.000000
v 0.224661 7.652780 -0.000000
v 0.158859 7.493921 -0.000000
v 0.085974 7.445221 -0.000000
v 0.060793 7.860339 0.060793
v 0.112330 7.811639 0.112330
v 0.158859 7.652780 0.158859
v 0.112330 7.493921 0.112330
v 0.060793 7.445221 0.060793
v 0.000000 7.860339 0.085974
v 0.000000 7.811639 0.158859
v 0.000000 7.652780 0.224660
v 0.000000 7.493921 0.158859
v 0.000000 7.445221 0.085974
v -0.000000 7.811639 -0.158859
v 0.000000 7.652780 -0.224661
v -0.000000 7.493921 -0.158859
v -0.000000 7.445221 -0.085974
v 0.000000 7.322808 -0.382683
v 0.270598 7.322808 -0.270598
v 0.500000 7.003983 -0.500000
v 0.653281 6.526828 -0.653282
v 0.707107 5.717998 -0.707107
v 0.500000 5.110111 -0.500000
v 0.382683 7.322808 -0.000000
v 0.707107 7.003983 -0.000000
v 0.923879 6.526828 -0.000000
v 1.000000 5.717998 -0.000000
v 0.707107 5.110111 -0.000000
v 0.270598 7.322808 0.270598
v 0.500000 7.003983 0.500000
v 0.653281 6.526828 0.653281
v 0.707107 5.717998 0.707106
v 0.500000 5.110111 0.500000
v 0.000000 7.322808 0.382683
v 0.000000 7.003983 0.707106
v 0.000000 5.717998 0.999999
v 0.000000 5.110111 0.707106
v -0.500000 7.003983 0.500000
v -0.653281 6.526828 0.653281
v -0.707106 5.717998 0.707106
v -0.500000 5.110111 0.500000
v 0.000000 4.493204 -0.000000
v -0.707106 7.003983 -0.000000
v -0.923879 6.526828 -0.000000
v -1.000000 5.717998 -0.000000
v -0.707106 5.110111 -0.000000
v -0.500000 7.003983 -0.500000
v -0.653281 6.526828 -0.653281
v -0.707106 5.717998 -0.707107
v -0.500000 5.110111 -0.500000
v -0.000000 6.526828 -0.923879
v 0.000000 5.717998 -1.000000
v -0.000000 5.110111 -0.707107
v -0.401003 7.003983 0.643661
v -0.401003 6.526828 0.728752
v -0.290179 5.789713 0.592832
v -0.401003 7.003983 -0.643662
v -0.401003 6.526828 -0.728752
v -0.290179 5.789713 -0.592833
v 0.000000 6.526828 0.923879
v -0.000000 7.003983 -0.707107
v 0.696342 5.879764 -0.696342
v 0.984776 5.879764 -0.000000
v 0.696342 5.879764 0.696341
v -0.110825 5.789983 0.680487
v -0.110825 5.789983 -0.680487
v -0.500000 7.003983 -0.000000
v -0.401003 7.003983 -0.000000
v -0.401003 6.526828 -0.000000
v -0.290179 5.789713 -0.000000
v 0.000000 7.322808 -0.000000
v -0.110825 5.789983 -0.000000
v -0.000000 6.526828 -0.000000
v -0.000000 7.003983 -0.000000
v -0.401003 5.879162 -0.000000
v -0.401003 5.879162 -0.788796
v 0.000000 5.879764 -0.984776
v -0.401003 5.879162 0.788795
v 0.000000 5.879764 0.984775
v 0.000000 5.879764 -0.000000
v 0.061884 7.421041 -0.061885
v -0.000000 7.421041 -0.087518
v 0.087518 7.421041 -0.000000
v 0.061884 7.421041 0.061884
v 0.000000 7.421041 0.087518
v 0.000000 7.421041 -0.000000
v -0.000000 7.493921 -0.000000
v 0.000000 7.445221 -0.000000
v 0.000000 7.652780 -0.000000
v -0.000000 7.811639 -0.000000
v 0.000000 7.860339 -0.000000
v -0.000000 -0.000000 -1.878240
v 0.000000 1.763598 -0.981601
v 1.328117 -0.000000 -1.328116
v 0.694097 1.763598 -0.694096
v 1.878240 -0.000000 0.000000
v 0.981601 1.763598 0.000000
v 1.328117 -0.000000 1.328117
v 0.694097 1.763598 0.694097
v -0.000001 -0.000000 1.878241
v -0.000000 1.763598 0.981601
v -1.328117 -0.000000 1.328117
v -0.694097 1.763598 0.694096
v -1.878240 -0.000000 -0.000001
v -0.981601 1.763598 -0.000001
v -1.328115 -0.000000 -1.328118
v -0.694096 1.763598 -0.694097
v 0.000000 0.645148 -1.678728
v 1.187040 0.645148 -1.187039
v 1.678728 0.645148 0.000000
v 1.187040 0.645148 1.187041
v -0.000001 0.645148 1.678729
v -1.187041 0.645148 1.187040
v -1.678728 0.645148 -0.000001
v -1.187039 0.645148 -1.187041
v -0.000000 1.020304 -1.797589
v 1.271087 1.020304 -1.271087
v 1.797589 1.020304 0.000000
v 1.271087 1.020304 1.271088
v -0.000001 1.020304 1.797590
v -1.271089 1.020304 1.271088
v -1.797589 1.020304 -0.000001
v -1.271086 1.020304 -1.271089
v -0.000000 0.338474 -1.962746
v 1.387872 0.338474 -1.387871
v 1.962747 0.338474 0.000000
v 1.387872 0.338474 1.387872
v -0.000001 0.338474 1.962747
v -1.387872 0.338474 1.387871
v -1.962747 0.338474 -0.000001
v -1.387870 0.338474 -1.387873
v 0.000000 1.424083 -1.237404
v 0.874977 1.424083 -0.874977
v 1.237404 1.424083 0.000000
v 0.874977 1.424083 0.874977
v -0.000000 1.424083 1.237405
v -0.874978 1.424083 0.874977
v -1.237405 1.424083 -0.000001
v -0.874976 1.424083 -0.874978
v 0.593346 4.891943 0.593346
v -0.000000 4.891943 0.839118
v 0.839118 4.891943 0.000000
v 0.593346 4.891943 -0.593345
v -0.000000 4.891943 -0.839117
v -0.593345 4.891943 -0.593346
v -0.839117 4.891943 -0.000001
v -0.593346 4.891943 0.593345
v -0.431828 3.031211 0.431828
v -0.610697 3.031211 -0.000000
v -0.431828 3.031211 -0.431829
v 0.431828 3.031211 -0.431828
v 0.610698 3.031211 0.000000
v -0.000000 3.031211 0.610698
v 0.431828 3.031211 0.431828
v 0.000000 3.031211 -0.610697
v -0.820654 4.324110 0.820653
v -0.805953 4.115066 0.805953
v 0.820654 4.324110 -0.820653
v 0.805953 4.115066 -0.805953
v -0.000000 4.324110 1.160580
v -0.000000 4.115066 1.139790
v -1.139789 4.115066 -0.000001
v -1.160579 4.324110 -0.000001
v -0.805952 4.115066 -0.805954
v -0.820653 4.324110 -0.820655
v 1.139790 4.115066 0.000000
v 1.160580 4.324110 0.000000
v 0.805953 4.115066 0.805953
v 0.820654 4.324110 0.820654
v -0.000000 4.115066 -1.139789
v -0.000000 4.324110 -1.160579
v -0.487704 3.984602 0.487703
v -0.000000 3.984602 0.689717
v -0.689717 3.984601 -0.000001
v 0.487703 3.984601 -0.487703
v 0.000000 3.984601 -0.689717
v 0.689717 3.984601 0.000000
v 0.487703 3.984601 0.487703
v -0.487703 3.984601 -0.487704
v -0.909442 4.444978 -0.000001
v -0.643073 4.444978 0.643072
v -0.000000 4.444978 0.909442
v 0.909442 4.444978 0.000000
v 0.643073 4.444978 -0.643072
v -0.000000 4.444978 -0.909442
v 0.643073 4.444978 0.643073
v -0.643072 4.444978 -0.643073
v -0.510225 4.805504 -0.510226
v -0.000000 4.805504 -0.721568
v 0.510226 4.805504 -0.510226
v 0.721568 4.805504 0.000000
v 0.510226 4.805504 0.510226
v -0.000000 4.805504 0.721568
v -0.510226 4.805504 0.510226
v -0.721568 4.805504 -0.000001
v -0.663836 4.545039 0.663835
v -0.623299 4.683135 0.623299
v -0.000000 4.545039 0.938805
v -0.000000 4.683135 0.881478
v 0.663836 4.545039 -0.663835
v 0.623299 4.683135 -0.623299
v -0.000000 4.683135 -0.881478
v -0.000000 4.545039 -0.938805
v 0.623299 4.683135 0.623299
v 0.663836 4.545039 0.663836
v -0.881478 4.683135 -0.000001
v -0.938805 4.545039 -0.000001
v 0.881478 4.683135 0.000000
v 0.938805 4.545039 0.000000
v -0.663835 4.545039 -0.663836
v -0.623298 4.683135 -0.623300
v 0.593346 5.038362 0.593346
v -0.000000 5.038362 0.839118
v 0.839118 5.038362 0.000000
v 0.593346 5.038362 -0.593345
v -0.000000 5.038362 -0.839117
v -0.593345 5.038362 -0.593346
v -0.839117 5.038362 -0.000001
v -0.593346 5.038362 0.593345
vn 0.2243 -0.8103 -0.5414
vn 0.3574 -0.3574 -0.8629
vn 0.0805 0.9776 -0.1945
vn 0.3820 0.0589 0.9223
vn -1.0000 0.0000 0.0000
vn 0.2243 0.8103 -0.5414
vn 0.5414 0.8103 -0.2243
vn 0.5414 -0.8103 -0.2243
vn 0.8629 -0.3574 -0.3574
vn 0.1945 0.9776 -0.0805
vn 0.8629 -0.3574 0.3574
vn 0.5414 0.8103 0.2243
vn 0.5414 -0.8103 0.2243
vn 0.3574 -0.3574 0.8629
vn 0.1945 0.9776 0.0805
vn 0.2243 -0.8103 0.5414
vn 0.8629 0.3574 -0.3574
vn 0.0805 0.9776 0.1945
vn 0.3820 0.0589 -0.9223
vn 0.3574 0.3574 -0.8629
vn 0.2243 0.8103 0.5414
vn 0.3529 0.3870 -0.8519
vn 0.3812 0.0866 -0.9204
vn 0.2788 0.6849 -0.6731
vn 0.9204 0.0866 -0.3812
vn 0.6731 0.6849 -0.2788
vn 0.8519 0.3870 -0.3529
vn 0.9204 0.0866 0.3812
vn 0.6731 0.6849 0.2788
vn 0.8519 0.3870 0.3529
vn 0.3529 0.3870 0.8519
vn 0.3812 0.0866 0.9204
vn 0.2788 0.6849 0.6731
vn 0.3496 -0.4067 -0.8440
vn 0.8440 -0.4067 -0.3496
vn -0.8440 -0.4067 -0.3496
vn -0.9204 0.0866 0.3812
vn -0.3496 -0.4067 -0.8440
vn -0.8519 0.3870 0.3529
vn -0.8440 -0.4067 0.3496
vn -0.8519 0.3870 -0.3529
vn -0.3496 -0.4067 0.8440
vn -0.9204 0.0866 -0.3812
vn 0.3496 -0.4067 0.8440
vn 0.8440 -0.4067 0.3496
vn -0.5074 0.2847 -0.8133
vn -0.2927 0.0853 0.9524
vn 0.0000 1.0000 0.0000
vn -0.0015 1.0000 0.0000
vn 1.0000 0.0000 0.0000
vn -0.5074 0.2847 0.8133
vn -0.2927 0.0853 -0.9524
vn -0.3963 0.1908 -0.8981
vn -0.3963 0.1908 0.8981
vn 0.6281 0.7782 0.0000
vn 0.1613 0.9291 0.3329
vn 0.1613 0.9291 -0.3329
vn -0.6295 0.7770 -0.0000
vn 0.1297 0.9408 -0.3131
vn 0.9223 0.0589 0.3820
vn 0.3131 0.9408 0.1297
vn 0.1297 0.9408 0.3131
vn 0.3131 0.9408 -0.1297
vn 0.9223 0.0589 -0.3820
vn 0.8629 0.3574 0.3574
vn 0.3574 0.3574 0.8629
vn -0.3729 -0.2248 -0.9002
vn 0.7020 0.6501 0.2908
vn 0.2908 0.6501 0.7020
vn 0.3673 -0.2809 0.8867
vn 0.8867 -0.2809 0.3673
vn 0.5683 0.7884 0.2354
vn 0.2354 0.7884 0.5683
vn 0.7583 0.5713 0.3141
vn 0.3141 0.5713 0.7583
vn 0.3729 -0.2248 -0.9002
vn 0.9002 -0.2248 -0.3729
vn 0.9002 -0.2248 0.3729
vn 0.3729 -0.2248 0.9002
vn -0.3729 -0.2248 0.9002
vn -0.2908 0.6501 0.7020
vn -0.7020 0.6501 0.2908
vn 0.8867 -0.2809 -0.3673
vn -0.3673 -0.2809 -0.8867
vn -0.8867 -0.2809 0.3673
vn -0.5683 0.7884 -0.2354
vn 0.2354 0.7884 -0.5683
vn -0.5683 0.7884 0.2354
vn 0.3141 0.5713 -0.7583
vn -0.7583 0.5713 -0.3141
vn -0.7583 0.5713 0.3141
vn -0.9002 -0.2248 0.3729
vn -0.7020 0.6501 -0.2908
vn -0.2908 0.6501 -0.7020
vn -0.3673 -0.2809 0.8867
vn -0.8867 -0.2809 -0.3673
vn -0.2354 0.7884 0.5683
vn -0.2354 0.7884 -0.5683
vn -0.3141 0.5713 0.7583
vn -0.3141 0.5713 -0.7583
vn 0.7583 0.5713 -0.3141
vn 0.5683 0.7884 -0.2354
vn 0.3673 -0.2809 -0.8867
vn 0.7020 0.6501 -0.2908
vn 0.2908 0.6501 -0.7020
vn -0.9002 -0.2248 -0.3729
vn -0.1146 -0.9541 0.2766
vn 0.0000 -1.0000 0.0000
vn 0.3827 0.0000 -0.9239
vn -0.2766 -0.9541 -0.1146
vn 0.1146 -0.9541 -0.2766
vn -0.2766 -0.9541 0.1146
vn 0.2766 -0.9541 0.1146
vn -0.1146 -0.9541 -0.2766
vn -0.8917 -0.2617 -0.3694
vn 0.2766 -0.9541 -0.1146
vn 0.3694 0.2610 -0.8919
vn 0.3694 0.2610 0.8919
vn -0.3694 0.2610 -0.8919
vn 0.8919 0.2610 0.3694
vn -0.3694 0.2610 0.8919
vn 0.8919 0.2610 -0.3694
vn -0.8919 0.2610 -0.3694
vn -0.8919 0.2610 0.3694
vn -0.3694 -0.2617 -0.8917
vn 0.5753 -0.7824 -0.2383
vn -0.5753 -0.7824 -0.2383
vn 0.3693 -0.2617 0.8917
vn 0.1146 -0.9541 0.2766
vn 0.8917 -0.2617 0.3694
vn 0.3693 -0.2617 -0.8917
vn 0.3811 -0.0915 -0.9200
vn 0.3811 -0.0915 0.9200
vn -0.3811 -0.0915 -0.9200
vn 0.9200 -0.0915 0.3811
vn -0.3811 -0.0915 0.9200
vn 0.9200 -0.0915 -0.3811
vn -0.9200 -0.0915 -0.3811
vn -0.9200 -0.0915 0.3811
vn -0.3694 -0.2617 0.8917
vn 0.3816 -0.0763 0.9212
vn 0.9212 -0.0763 -0.3816
vn -0.3816 -0.0763 -0.9212
vn 0.9212 -0.0763 0.3816
vn -0.9212 -0.0763 0.3816
vn 0.3816 -0.0763 -0.9212
vn -0.9212 -0.0763 -0.3816
vn -0.3816 -0.0763 0.9212
vn -0.4268 0.8869 0.1768
vn 0.4268 0.8869 -0.1768
vn -0.1768 0.8869 -0.4268
vn -0.1768 0.8869 0.4268
vn 0.4268 0.8869 0.1768
vn 0.1768 0.8869 0.4268
vn 0.1768 0.8869 -0.4268
vn -0.4268 0.8869 -0.1768
vn -0.2383 -0.7824 0.5753
vn 0.2383 -0.7824 -0.5754
vn -0.2383 -0.7824 -0.5753
vn -0.8917 -0.2617 0.3693
vn 0.5753 -0.7824 0.2383
vn 0.2383 -0.7824 0.5753
vn 0.8917 -0.2617 -0.3693
vn -0.5893 0.7701 0.2441
vn -0.8626 0.3581 0.3573
vn 0.8626 0.3581 -0.3573
vn -0.3573 0.3581 -0.8626
vn -0.3573 0.3581 0.8626
vn 0.8626 0.3581 0.3573
vn 0.3573 0.3581 0.8626
vn 0.3573 0.3581 -0.8626
vn -0.8626 0.3581 -0.3573
vn -0.5753 -0.7824 0.2383
vn 0.2441 0.7701 0.5893
vn 0.5893 0.7701 0.2441
vn -0.2441 0.7701 -0.5893
vn 0.2441 0.7701 -0.5893
vn -0.2441 0.7701 0.5893
vn -0.5893 0.7701 -0.2441
vn 0.5893 0.7701 -0.2441
vn 0.9239 0.0000 0.3827
vn -0.9239 0.0000 0.3827
vn -0.3827 0.0000 -0.9239
vn 0.9239 0.0000 -0.3827
vn 0.3827 0.0000 0.9239
vn -0.3827 0.0000 0.9239
vn -0.9239 0.0000 -0.3827
vn 0.1940 0.8619 -0.4685
vn -0.1940 0.8619 -0.4685
vn -0.4685 0.8619 -0.1940
vn -0.4685 0.8619 0.1940
vn -0.1940 0.8619 0.4685
vn 0.1940 0.8619 0.4685
vn 0.4685 0.8619 0.1940
vn 0.4685 0.8619 -0.1940
usemtl None
s off
f 26//1 25//1 6//1 7//1
f 25//2 24//2 5//2 6//2
f 1//3 2//3 3//3
f 22//4 94//4 93//4 17//4
f 21//5 20//5 98//5 96//5
f 23//6 1//6 3//6 4//6
f 97//5 95//5 94//5 22//5
f 96//5 98//5 24//5 25//5
f 4//7 3//7 8//7 9//7
f 7//8 6//8 11//8 12//8
f 6//9 5//9 10//9 11//9
f 3//10 2//10 8//10
f 11//11 10//11 15//11 16//11
f 9//12 8//12 13//12 14//12
f 12//13 11//13 16//13 17//13
f 16//14 15//14 20//14 21//14
f 8//15 2//15 13//15
f 26//5 91//5 95//5 97//5
f 17//16 16//16 21//16 22//16
f 5//17 4//17 9//17 10//17
f 13//18 2//18 18//18
f 7//19 90//19 91//19 26//19
f 24//20 23//20 4//20 5//20
f 14//21 13//21 18//21 19//21
f 60//22 70//22 29//22 30//22
f 86//23 60//23 30//23 71//23
f 70//24 27//24 28//24 29//24
f 71//25 30//25 35//25 72//25
f 29//26 28//26 33//26 34//26
f 30//27 29//27 34//27 35//27
f 72//28 35//28 40//28 73//28
f 34//29 33//29 38//29 39//29
f 35//30 34//30 39//30 40//30
f 40//31 39//31 44//31 69//31
f 73//32 40//32 69//32 88//32
f 39//33 38//33 43//33 44//33
f 62//34 61//34 31//34 32//34
f 32//35 31//35 36//35 37//35
f 55//36 54//36 58//36 59//36
f 49//37 48//37 53//37 54//37
f 59//38 58//38 61//38 62//38
f 48//39 47//39 52//39 53//39
f 50//40 49//40 54//40 55//40
f 53//41 52//41 56//41 57//41
f 46//42 45//42 49//42 50//42
f 54//43 53//43 57//43 58//43
f 42//44 41//44 45//44 46//44
f 37//45 36//45 41//45 42//45
f 57//46 56//46 66//46 67//46
f 48//47 49//47 87//47 64//47
f 52//48 47//48 76//48 56//48
f 80//5 27//5 70//5 83//5
f 65//49 74//49 81//49 79//49
f 78//50 67//50 66//50 77//50
f 84//50 85//50 67//50 78//50
f 76//48 47//48 63//48 77//48
f 47//51 48//51 64//51 63//51
f 58//52 57//52 67//52 85//52
f 83//5 70//5 60//5 82//5
f 58//53 85//53 86//53 61//53
f 87//54 49//54 45//54 88//54
f 41//32 73//32 88//32 45//32
f 36//28 72//28 73//28 41//28
f 31//25 71//25 72//25 36//25
f 61//23 86//23 71//23 31//23
f 89//5 82//5 60//5 86//5
f 79//49 81//49 75//49 68//49
f 88//5 69//5 82//5 89//5
f 44//5 83//5 82//5 69//5
f 56//48 76//48 77//48 66//48
f 87//50 84//50 78//50 64//50
f 64//50 78//50 77//50 63//50
f 43//5 80//5 83//5 44//5
f 79//55 68//55 85//55 84//55
f 68//56 75//56 86//56 85//56
f 74//57 65//57 87//57 88//57
f 81//58 74//58 88//58 89//58
f 65//55 79//55 84//55 87//55
f 75//58 81//58 89//58 86//58
f 28//59 27//59 91//59 90//59
f 17//60 93//60 92//60 12//60
f 27//5 80//5 95//5 91//5
f 38//61 33//61 92//61 93//61
f 80//5 43//5 94//5 95//5
f 43//62 38//62 93//62 94//62
f 33//63 28//63 90//63 92//63
f 97//5 96//5 25//5 26//5
f 12//64 92//64 90//64 7//64
f 10//65 9//65 14//65 15//65
f 15//66 14//66 19//66 20//66
f 99//5 100//5 1//5 23//5
f 1//5 100//5 18//5 2//5
f 19//5 18//5 100//5 99//5
f 98//5 99//5 23//5 24//5
f 20//5 19//5 99//5 98//5
f 22//5 21//5 96//5 97//5
f 115//67 140//67 133//67 101//67
f 135//68 119//68 120//68 136//68
f 136//69 120//69 121//69 137//69
f 120//70 128//70 129//70 121//70
f 119//71 127//71 128//71 120//71
f 127//72 143//72 144//72 128//72
f 128//73 144//73 145//73 129//73
f 143//74 106//74 108//74 144//74
f 144//75 108//75 110//75 145//75
f 101//76 133//76 134//76 103//76
f 103//77 134//77 135//77 105//77
f 105//78 135//78 136//78 107//78
f 107//79 136//79 137//79 109//79
f 109//80 137//80 138//80 111//80
f 137//81 121//81 122//81 138//81
f 138//82 122//82 123//82 139//82
f 118//83 126//83 127//83 119//83
f 124//84 132//84 125//84 117//84
f 122//85 130//85 131//85 123//85
f 131//86 147//86 148//86 132//86
f 125//87 141//87 142//87 126//87
f 130//88 146//88 147//88 131//88
f 141//89 102//89 104//89 142//89
f 147//90 114//90 116//90 148//90
f 146//91 112//91 114//91 147//91
f 111//92 138//92 139//92 113//92
f 139//93 123//93 124//93 140//93
f 140//94 124//94 117//94 133//94
f 121//95 129//95 130//95 122//95
f 123//96 131//96 132//96 124//96
f 129//97 145//97 146//97 130//97
f 132//98 148//98 141//98 125//98
f 145//99 110//99 112//99 146//99
f 148//100 116//100 102//100 141//100
f 142//101 104//101 106//101 143//101
f 126//102 142//102 143//102 127//102
f 117//103 125//103 126//103 118//103
f 134//104 118//104 119//104 135//104
f 133//105 117//105 118//105 134//105
f 113//106 139//106 140//106 115//106
f 181//107 182//107 170//107 166//107
f 109//108 111//108 113//108 115//108 101//108 103//108 105//108 107//108
f 152//109 153//109 225//109 224//109
f 188//110 183//110 171//110 173//110
f 184//111 185//111 179//111 168//111
f 183//112 181//112 166//112 171//112
f 187//113 186//113 175//113 177//113
f 185//114 188//114 173//114 179//114
f 196//115 189//115 216//115 219//115
f 186//116 184//116 168//116 175//116
f 104//117 102//117 164//117 160//117
f 110//118 108//118 163//118 162//118
f 102//119 116//119 159//119 164//119
f 108//120 106//120 161//120 163//120
f 112//121 110//121 162//121 157//121
f 106//122 104//122 160//122 161//122
f 116//123 114//123 158//123 159//123
f 114//124 112//124 157//124 158//124
f 194//125 196//125 219//125 212//125
f 200//126 199//126 152//126 151//126
f 197//127 204//127 155//127 154//127
f 191//128 195//128 214//128 207//128
f 182//129 187//129 177//129 170//129
f 195//130 192//130 218//130 214//130
f 193//131 194//131 212//131 209//131
f 180//132 167//132 168//132 179//132
f 178//133 169//133 170//133 177//133
f 174//134 180//134 179//134 173//134
f 176//135 178//135 177//135 175//135
f 169//136 165//136 166//136 170//136
f 167//137 176//137 175//137 168//137
f 172//138 174//138 173//138 171//138
f 165//139 172//139 171//139 166//139
f 190//140 191//140 207//140 205//140
f 162//141 163//141 187//141 182//141
f 161//142 160//142 184//142 186//142
f 164//143 159//143 188//143 185//143
f 163//144 161//144 186//144 187//144
f 158//145 157//145 181//145 183//145
f 160//146 164//146 185//146 184//146
f 159//147 158//147 183//147 188//147
f 157//148 162//148 182//148 181//148
f 172//149 165//149 190//149 189//149
f 176//150 167//150 193//150 192//150
f 180//151 174//151 196//151 194//151
f 165//152 169//152 191//152 190//152
f 178//153 176//153 192//153 195//153
f 169//154 178//154 195//154 191//154
f 167//155 180//155 194//155 193//155
f 174//156 172//156 189//156 196//156
f 203//157 202//157 150//157 156//157
f 199//158 198//158 153//158 152//158
f 198//159 197//159 154//159 153//159
f 189//160 190//160 205//160 216//160
f 201//161 200//161 151//161 149//161
f 202//162 201//162 149//162 150//162
f 192//163 193//163 209//163 218//163
f 215//164 206//164 203//164 204//164
f 206//165 215//165 216//165 205//165
f 210//166 217//166 218//166 209//166
f 220//167 211//167 212//167 219//167
f 208//168 206//168 205//168 207//168
f 217//169 213//169 214//169 218//169
f 213//170 208//170 207//170 214//170
f 211//171 210//171 209//171 212//171
f 215//172 220//172 219//172 216//172
f 204//173 203//173 156//173 155//173
f 208//174 213//174 201//174 202//174
f 213//175 217//175 200//175 201//175
f 211//176 220//176 197//176 198//176
f 210//177 211//177 198//177 199//177
f 206//178 208//178 202//178 203//178
f 220//179 215//179 204//179 197//179
f 217//180 210//180 199//180 200//180
f 149//181 151//181 223//181 221//181
f 155//182 156//182 228//182 227//182
f 153//183 154//183 226//183 225//183
f 151//184 152//184 224//184 223//184
f 150//185 149//185 221//185 222//185
f 156//186 150//186 222//186 228//186
f 154//187 155//187 227//187 226//187
f 32//188 224//188 225//188 62//188
f 62//189 225//189 226//189 59//189
f 59//190 226//190 227//190 55//190
f 55//191 227//191 228//191 50//191
f 50//192 228//192 222//192 46//192
f 46//193 222//193 221//193 42//193
f 42//194 221//194 223//194 37//194
f 37//195 223//195 224//195 32//195
