<?xml version="1.0" standalone="no"?>
<!DOCTYPE svg PUBLIC "-//W3C//DTD SVG 20010904//EN"
 "http://www.w3.org/TR/2001/REC-SVG-20010904/DTD/svg10.dtd">
<svg version="1.0" xmlns="http://www.w3.org/2000/svg"
 width="1288.000000pt" height="1288.000000pt" viewBox="0 0 1288.000000 1288.000000"
 preserveAspectRatio="xMidYMid meet">
<metadata>
Created by potrace 1.14, written by Peter Selinger 2001-2017
</metadata>
<g transform="translate(0.000000,1288.000000) scale(0.100000,-0.100000)"
fill="#000000" stroke="none">
<path d="M6433 12347 c-26 -40 -50 -76 -53 -82 -9 -17 -44 -70 -51 -75 -3 -3
-14 -21 -24 -40 -10 -19 -21 -37 -24 -40 -9 -7 -61 -88 -61 -95 0 -3 -5 -11
-10 -18 -15 -18 -110 -167 -110 -172 0 -3 -25 -44 -56 -92 -31 -48 -64 -102
-72 -120 -9 -18 -19 -33 -24 -33 -4 0 -8 -4 -8 -10 0 -7 -62 -116 -120 -210
-5 -8 -40 -68 -77 -134 -37 -65 -80 -139 -95 -165 -15 -25 -32 -58 -39 -73 -6
-16 -15 -28 -21 -28 -5 0 -7 -4 -3 -9 3 -5 -2 -16 -10 -24 -8 -9 -15 -18 -15
-22 0 -3 -20 -40 -44 -83 -61 -109 -117 -215 -204 -382 -41 -80 -79 -151 -84
-157 -6 -7 -8 -13 -4 -13 3 0 -5 -18 -19 -40 -14 -22 -25 -46 -25 -54 0 -7 -7
-19 -15 -26 -8 -7 -15 -16 -15 -21 0 -5 -36 -81 -80 -170 -44 -88 -80 -166
-80 -174 0 -7 -3 -15 -8 -17 -7 -3 -120 -242 -178 -378 -16 -36 -33 -68 -39
-72 -5 -4 -7 -8 -2 -8 4 0 0 -15 -10 -32 -9 -18 -18 -35 -18 -38 -1 -3 -9 -22
-18 -42 -9 -21 -24 -55 -33 -75 -20 -47 -35 -81 -67 -155 -14 -32 -23 -58 -19
-58 4 0 2 -4 -3 -8 -6 -4 -21 -32 -32 -62 -12 -30 -45 -111 -73 -180 -29 -69
-53 -130 -54 -136 -1 -7 -8 -19 -15 -28 -7 -9 -10 -16 -6 -16 4 0 2 -7 -5 -15
-7 -8 -10 -15 -7 -15 2 0 -15 -48 -40 -107 -24 -60 -46 -115 -48 -123 -2 -8
-22 -64 -45 -125 -23 -60 -50 -135 -62 -165 -11 -30 -24 -64 -28 -75 -5 -11
-25 -69 -45 -130 -21 -60 -42 -116 -48 -122 -5 -7 -7 -13 -4 -13 3 0 -15 -57
-40 -127 -25 -71 -46 -132 -47 -138 -1 -5 -20 -64 -41 -130 -21 -66 -40 -122
-40 -125 -1 -3 -4 -12 -7 -20 -8 -20 -79 -251 -83 -270 -2 -8 -4 -16 -5 -17
-2 -2 -3 -6 -4 -10 -1 -5 -11 -35 -21 -68 -10 -33 -20 -67 -21 -75 -3 -16 -53
-188 -80 -275 -9 -27 -18 -59 -20 -69 -2 -10 -14 -58 -28 -105 -22 -79 -36
-131 -41 -156 -2 -5 -8 -30 -16 -55 -13 -47 -14 -50 -23 -90 -3 -14 -10 -43
-16 -65 -6 -22 -12 -47 -14 -55 -2 -8 -9 -35 -16 -60 -12 -44 -17 -64 -26
-107 -2 -12 -9 -34 -14 -48 -5 -14 -7 -25 -5 -25 2 0 0 -11 -5 -26 -6 -14 -12
-39 -15 -57 -6 -31 -35 -158 -56 -242 -10 -42 -15 -65 -24 -105 -10 -49 -15
-70 -19 -89 -9 -37 -45 -207 -50 -231 -3 -14 -7 -36 -10 -49 -6 -28 -64 -315
-71 -352 -3 -13 -7 -35 -10 -49 -2 -14 -7 -41 -10 -60 -3 -19 -8 -42 -10 -50
-2 -8 -6 -32 -10 -54 -3 -21 -7 -41 -9 -45 -3 -4 -7 -29 -10 -56 -4 -27 -8
-57 -11 -65 -2 -8 -7 -31 -9 -50 -3 -19 -7 -46 -10 -60 -7 -32 -43 -244 -50
-290 -3 -19 -8 -46 -10 -60 -2 -14 -10 -59 -16 -100 -14 -89 -16 -104 -24
-150 -3 -19 -8 -53 -11 -75 -3 -22 -8 -53 -10 -70 -7 -36 -14 -86 -20 -140 -3
-22 -7 -53 -10 -70 -7 -40 -15 -101 -20 -150 -2 -22 -7 -53 -10 -70 -9 -53
-14 -89 -20 -150 -4 -33 -8 -67 -11 -75 -3 -14 -12 -90 -19 -170 -2 -19 -4
-35 -5 -35 -2 0 -4 -13 -5 -30 -2 -31 -12 -112 -20 -175 -3 -19 -7 -62 -10
-95 -5 -55 -8 -78 -20 -175 -3 -19 -7 -64 -10 -100 -3 -36 -7 -81 -10 -100 -5
-37 -14 -135 -20 -210 -2 -25 -6 -61 -9 -80 -2 -19 -7 -73 -11 -120 -4 -47 -9
-105 -11 -130 -9 -93 -14 -157 -18 -220 -3 -36 -7 -92 -10 -125 -3 -33 -8 -94
-11 -135 l-6 -75 25 24 c14 14 26 28 26 33 0 4 8 16 18 26 9 10 26 31 37 46
11 16 27 36 35 45 9 9 28 32 42 51 14 19 35 45 47 57 12 12 21 26 21 32 0 5 3
11 8 13 4 2 25 26 47 53 22 28 42 52 45 55 3 3 44 52 90 110 97 121 111 138
125 154 6 6 30 36 55 66 25 30 49 60 55 66 5 6 28 33 50 59 22 27 50 59 63 71
12 13 22 27 22 33 0 5 3 11 8 13 4 2 61 66 126 143 66 77 128 149 138 160 10
11 29 32 41 46 47 54 153 174 178 201 14 15 46 51 71 80 25 29 61 69 79 89 19
20 56 60 83 90 273 302 736 775 1016 1039 189 179 213 201 291 270 40 36 83
75 95 87 12 13 24 23 26 23 3 0 25 18 49 40 24 23 51 47 59 53 8 7 44 38 80
68 36 29 67 56 70 59 3 3 28 23 55 45 28 21 52 42 55 45 3 3 28 23 55 45 28
21 65 52 83 69 17 16 32 26 32 21 0 -5 6 -2 12 7 33 41 366 278 653 463 91 59
254 145 275 145 5 0 10 5 10 10 0 6 3 9 8 8 4 -1 43 10 87 24 113 37 122 39
235 56 63 9 211 8 285 -2 53 -8 186 -41 220 -55 106 -44 250 -124 336 -185
118 -85 140 -104 262 -224 110 -109 108 -108 201 -222 103 -127 93 -113 169
-220 36 -52 71 -100 77 -107 5 -7 10 -14 10 -17 0 -2 22 -37 48 -78 27 -40 57
-86 66 -103 9 -16 35 -59 57 -95 21 -36 44 -74 49 -85 6 -11 28 -51 50 -90 22
-38 64 -117 92 -175 29 -58 55 -107 58 -110 5 -5 15 -24 110 -224 34 -71 63
-134 65 -140 1 -6 20 -49 42 -96 22 -47 57 -125 78 -175 21 -49 49 -115 62
-145 14 -30 26 -59 28 -65 1 -5 7 -21 12 -35 6 -14 36 -90 68 -170 31 -80 61
-154 66 -165 5 -11 25 -63 44 -115 20 -52 38 -102 42 -110 3 -8 7 -17 7 -20 2
-10 38 -106 53 -142 19 -44 36 -50 28 -10 -5 27 -20 114 -29 162 -2 14 -7 36
-10 50 -3 14 -8 41 -10 60 -3 19 -10 60 -16 90 -6 30 -13 66 -15 80 -3 14 -7
34 -9 45 -2 11 -7 40 -11 65 -4 25 -9 54 -11 65 -3 11 -7 35 -10 54 -3 18 -7
41 -9 50 -11 60 -35 192 -40 221 -3 19 -8 49 -12 65 -4 17 -6 34 -5 39 2 4 -2
22 -7 40 -5 17 -12 48 -15 69 -10 62 -17 108 -22 131 -3 11 -9 44 -14 71 -5
28 -11 66 -15 85 -7 38 -11 57 -19 110 -3 19 -8 46 -11 60 -3 14 -8 39 -10 55
-7 35 -35 190 -41 220 -2 11 -9 47 -15 80 -5 33 -19 105 -30 160 -11 55 -21
114 -23 132 -3 18 -7 40 -10 50 -3 10 -7 34 -10 53 -2 19 -7 42 -10 50 -3 8
-7 32 -10 52 -3 21 -10 57 -15 80 -6 24 -12 59 -16 78 -5 35 -20 112 -31 160
-3 14 -7 36 -10 50 -20 109 -31 160 -39 190 0 3 -5 28 -9 55 -4 28 -11 54 -14
59 -3 6 -7 19 -8 30 -3 34 -18 111 -28 144 -3 9 -7 34 -11 56 -3 21 -7 42 -10
46 -3 5 -7 21 -9 37 -7 41 -13 70 -46 218 -11 50 -23 101 -26 115 -9 45 -11
55 -17 80 -3 14 -13 54 -21 90 -8 36 -26 112 -40 170 -14 58 -27 116 -30 130
-9 43 -36 154 -41 170 -2 8 -8 31 -13 50 -5 19 -10 40 -12 45 -1 6 -4 15 -5
20 -2 6 -6 24 -9 40 -6 28 -14 65 -20 90 -2 6 -6 17 -9 25 -3 8 -8 26 -10 40
-3 14 -14 59 -25 100 -40 149 -63 235 -67 250 -5 20 -32 118 -55 200 -10 36
-22 76 -26 90 -34 124 -55 193 -58 199 -3 4 -7 18 -10 32 -8 40 -112 379 -163
529 -14 41 -26 82 -28 90 -2 8 -16 49 -30 90 -14 41 -28 83 -30 92 -2 9 -8 25
-13 35 -6 10 -11 23 -12 28 -5 22 -32 101 -84 245 -24 69 -52 148 -62 175 -9
28 -25 68 -34 90 -9 22 -27 69 -39 105 -13 36 -29 79 -37 95 -7 17 -25 62 -39
100 -15 39 -32 84 -39 100 -7 17 -19 46 -26 65 -7 19 -17 39 -22 45 -4 5 -8
15 -8 22 0 7 -11 36 -24 65 -13 29 -40 94 -61 143 -21 50 -45 108 -55 130 -10
22 -32 74 -50 115 -18 41 -45 102 -60 135 -55 119 -74 160 -75 165 -4 20 -217
450 -423 855 -8 17 -24 42 -34 58 -11 15 -16 27 -13 27 3 0 -2 12 -12 28 -10
15 -32 52 -47 82 -16 30 -35 62 -42 71 -8 8 -14 23 -14 32 0 9 -4 17 -10 17
-5 0 -10 4 -10 9 0 5 -41 80 -91 167 -50 88 -103 179 -117 204 -13 25 -31 52
-38 61 -8 8 -14 19 -14 22 0 8 -214 356 -229 374 -6 7 -11 14 -11 17 0 8 -143
227 -187 289 -13 17 -23 35 -23 39 0 8 -9 21 -37 53 -7 7 -13 16 -13 20 0 7
-39 63 -57 83 -7 7 -13 17 -13 21 0 4 -8 16 -17 27 -24 27 -42 55 -49 76 -13
37 -34 26 -81 -45z m82 -1552 c-2 -14 0 -25 3 -25 4 0 7 -15 8 -32 0 -18 3
-60 7 -93 4 -33 9 -82 12 -110 3 -27 8 -63 11 -80 3 -16 7 -48 9 -70 2 -22 6
-56 9 -75 2 -19 7 -62 11 -95 4 -33 8 -70 10 -81 2 -12 6 -48 10 -80 10 -94
23 -196 31 -254 6 -35 8 -57 19 -160 3 -30 8 -64 10 -75 2 -11 7 -45 10 -75 6
-60 12 -109 20 -167 3 -21 8 -60 11 -88 7 -64 11 -98 19 -160 10 -78 13 -106
19 -170 3 -33 8 -71 11 -85 2 -14 7 -50 10 -80 4 -30 8 -67 11 -81 7 -47 15
-113 19 -159 2 -25 6 -57 9 -72 5 -23 10 -67 20 -181 2 -15 5 -30 9 -33 3 -3
3 -12 0 -20 -3 -8 0 -21 7 -29 9 -11 9 -15 1 -15 -7 0 -10 -4 -7 -9 3 -4 8
-33 12 -62 3 -30 8 -65 10 -79 2 -14 7 -47 10 -75 4 -27 7 -51 8 -52 3 -3 204
-73 226 -79 8 -2 114 -38 235 -80 121 -41 264 -90 317 -107 90 -29 121 -47 83
-47 -8 0 -15 -4 -15 -10 0 -5 -9 -10 -19 -10 -11 0 -21 -3 -23 -7 -1 -5 -28
-21 -58 -36 -30 -16 -93 -49 -140 -74 -195 -104 -230 -123 -335 -179 -60 -32
-128 -68 -150 -79 -44 -22 -42 -16 -31 -135 3 -30 8 -73 11 -95 10 -77 17
-140 20 -185 2 -25 4 -45 5 -45 1 0 8 -57 13 -110 2 -17 7 -36 11 -43 4 -7 2
-12 -4 -12 -6 0 -9 -3 -6 -8 6 -10 23 -128 31 -222 2 -25 7 -56 9 -69 5 -22 4
-23 -8 -10 -8 8 -26 37 -41 64 -15 28 -37 66 -50 85 -22 35 -196 332 -223 380
-7 14 -22 39 -32 55 -31 49 -50 84 -49 91 0 4 -3 10 -8 13 -5 3 -22 29 -38 56
-17 28 -35 59 -42 70 -7 11 -17 30 -22 42 -15 32 -32 38 -38 14 -3 -12 -9 -21
-14 -21 -5 0 -9 -4 -9 -9 0 -8 -45 -86 -109 -191 -6 -8 -38 -62 -72 -120 -34
-58 -100 -168 -146 -244 -45 -77 -83 -143 -83 -148 0 -4 -4 -8 -8 -8 -4 0 -13
-12 -20 -27 -15 -34 -57 -107 -77 -136 -15 -21 -15 -19 -10 26 3 26 7 68 10
95 10 91 16 147 21 177 3 17 7 55 9 85 2 30 5 55 5 55 3 0 9 43 15 108 3 39 7
80 10 91 2 12 6 44 9 72 3 28 9 79 12 115 4 35 8 81 8 102 l1 39 -245 124
c-135 68 -250 124 -257 124 -6 0 -13 3 -15 8 -1 4 -65 38 -140 75 -76 37 -140
72 -143 78 -4 5 -3 9 2 8 4 -1 15 0 23 3 8 3 31 10 50 17 19 7 42 14 50 16 8
2 32 11 52 19 21 9 39 15 40 14 2 0 28 7 58 17 30 11 58 20 63 21 4 1 9 3 12
4 3 1 8 3 13 4 4 1 21 6 37 13 17 6 129 44 250 83 121 40 221 73 223 75 5 4
12 48 18 113 3 35 7 73 10 85 8 41 17 122 18 159 1 21 3 38 7 38 3 0 5 10 6
23 3 71 9 117 16 117 5 0 5 5 2 10 -4 6 -1 45 5 88 16 107 17 119 25 187 3 33
8 71 10 85 2 14 9 68 15 120 6 52 14 111 17 130 3 19 7 46 8 60 5 56 16 148
21 171 2 13 7 44 9 69 3 25 7 65 10 90 4 25 7 59 9 75 3 33 15 125 21 165 3
14 7 48 10 75 5 50 13 105 21 160 3 16 7 54 9 85 3 30 7 69 11 85 3 17 7 48 9
70 2 22 6 56 9 75 3 19 8 58 11 85 3 28 10 79 15 114 5 35 8 67 8 70 -1 3 1
24 5 46 4 22 9 60 12 85 2 25 7 63 11 85 6 45 11 88 13 123 0 13 5 21 10 18 4
-3 7 -17 6 -31z"/>
</g>
</svg>
